<svg xmlns="http://www.w3.org/2000/svg" xmlns:xlink="http://www.w3.org/1999/xlink" viewBox="0,0,256,256" width="40px" height="40px"><g transform=""><g fill="none" fill-rule="nonzero" stroke="#0c6967" stroke-width="4" stroke-linecap="butt" stroke-linejoin="miter" stroke-miterlimit="10" stroke-dasharray="" stroke-dashoffset="0" font-family="none" font-weight="none" font-size="none" text-anchor="none" style="mix-blend-mode: normal"><path d="M65.32211,253.35578c-34.61604,0 -62.67789,-28.06185 -62.67789,-62.67789v-125.35578c0,-34.61604 28.06185,-62.67789 62.67789,-62.67789h125.35578c34.61604,0 62.67789,28.06185 62.67789,62.67789v125.35578c0,34.61604 -28.06185,62.67789 -62.67789,62.67789z" id="shape"></path></g><g fill="#0c6967" fill-rule="nonzero" stroke="none" stroke-width="1" stroke-linecap="butt" stroke-linejoin="miter" stroke-miterlimit="10" stroke-dasharray="" stroke-dashoffset="0" font-family="none" font-weight="none" font-size="none" text-anchor="none" style="mix-blend-mode: normal"><g transform="translate(256,255.99887) rotate(180) scale(4,4)"><path d="M17.84375,11.20117c-0.26045,0.00364 -0.50921,0.10875 -0.69336,0.29297l-5.65625,5.65625c-0.39037,0.39053 -0.39037,1.02353 0,1.41406l13.43555,13.43555l-13.43555,13.43555c-0.39037,0.39053 -0.39037,1.02353 0,1.41406l5.65625,5.65625c0.39053,0.39037 1.02353,0.39037 1.41406,0l13.43555,-13.43555l13.43555,13.43555c0.39053,0.39037 1.02353,0.39037 1.41406,0l5.65625,-5.65625c0.39037,-0.39053 0.39037,-1.02353 0,-1.41406l-13.43555,-13.43555l13.43555,-13.43555c0.39037,-0.39053 0.39037,-1.02353 0,-1.41406l-5.65625,-5.65625c-0.39053,-0.39037 -1.02353,-0.39037 -1.41406,0l-13.43555,13.43555l-8.16797,-8.16797c-0.25082,-0.26124 -0.62327,-0.36648 -0.97371,-0.27512c-0.35044,0.09136 -0.62411,0.36503 -0.71547,0.71547c-0.09136,0.35044 0.01388,0.72289 0.27512,0.97371l8.875,8.875c0.39053,0.39037 1.02353,0.39037 1.41406,0l13.43555,-13.43555l4.24219,4.24219l-13.43555,13.43555c-0.39037,0.39053 -0.39037,1.02353 0,1.41406l13.43555,13.43555l-4.24219,4.24219l-13.43555,-13.43555c-0.39053,-0.39037 -1.02353,-0.39037 -1.41406,0l-13.43555,13.43555l-4.24219,-4.24219l13.43555,-13.43555c0.39037,-0.39053 0.39037,-1.02353 0,-1.41406l-13.43555,-13.43555l4.24219,-4.24219l1.18555,1.18555c0.25082,0.26124 0.62327,0.36648 0.97371,0.27512c0.35044,-0.09136 0.62411,-0.36503 0.71547,-0.71547c0.09136,-0.35044 -0.01388,-0.72289 -0.27512,-0.97371l-1.89258,-1.89258c-0.19085,-0.19092 -0.45077,-0.29658 -0.7207,-0.29297z"></path></g></g></g></svg>