<svg xmlns="http://www.w3.org/2000/svg" xmlns:xlink="http://www.w3.org/1999/xlink" viewBox="0,0,256,256" width="40px" height="40px"><g fill="none" fill-rule="nonzero" stroke="#0c6967" stroke-width="3.55556" stroke-linecap="butt" stroke-linejoin="miter" stroke-miterlimit="10" stroke-dasharray="" stroke-dashoffset="0" font-family="none" font-weight="none" font-size="none" text-anchor="none" style="mix-blend-mode: normal"><path d="M65.17791,253.64417c-34.69568,0 -62.82209,-28.12641 -62.82209,-62.82209v-125.64417c0,-34.69568 28.12641,-62.82209 62.82209,-62.82209h125.64417c34.69568,0 62.82209,28.12641 62.82209,62.82209v125.64417c0,34.69568 -28.12641,62.82209 -62.82209,62.82209z" id="shape"></path></g><g fill="#0c6967" fill-rule="nonzero" stroke="none" stroke-width="1" stroke-linecap="butt" stroke-linejoin="miter" stroke-miterlimit="10" stroke-dasharray="" stroke-dashoffset="0" font-family="none" font-weight="none" font-size="none" text-anchor="none" style="mix-blend-mode: normal"><g transform="scale(3.55556,3.55556)"><path d="M56,48c2.209,0 4,1.791 4,4c0,2.209 -1.791,4 -4,4c-1.202,0 -38.798,0 -40,0c-2.209,0 -4,-1.791 -4,-4c0,-2.209 1.791,-4 4,-4c1.202,0 38.798,0 40,0zM56,32c2.209,0 4,1.791 4,4c0,2.209 -1.791,4 -4,4c-1.202,0 -38.798,0 -40,0c-2.209,0 -4,-1.791 -4,-4c0,-2.209 1.791,-4 4,-4c1.202,0 38.798,0 40,0zM56,16c2.209,0 4,1.791 4,4c0,2.209 -1.791,4 -4,4c-1.202,0 -38.798,0 -40,0c-2.209,0 -4,-1.791 -4,-4c0,-2.209 1.791,-4 4,-4c1.202,0 38.798,0 40,0z"></path></g></g></svg>